<svg xmlns="http://www.w3.org/2000/svg" xmlns:xlink="http://www.w3.org/1999/xlink" width="56" zoomAndPan="magnify" viewBox="0 0 42.75 42.749999" height="56" preserveAspectRatio="xMidYMid meet" version="1.0"><defs><clipPath id="e4d6bb71de"><path d="M 0 2.496094 L 37 2.496094 L 37 34 L 0 34 Z M 0 2.496094 " clip-rule="nonzero"/></clipPath><clipPath id="ae48e59ce7"><path d="M 8 6 L 42.5 6 L 42.5 25 L 8 25 Z M 8 6 " clip-rule="nonzero"/></clipPath><clipPath id="411959bd4a"><path d="M 11 33 L 19 33 L 19 39.996094 L 11 39.996094 Z M 11 33 " clip-rule="nonzero"/></clipPath><clipPath id="dfa8c3c492"><path d="M 27 33 L 35 33 L 35 39.996094 L 27 39.996094 Z M 27 33 " clip-rule="nonzero"/></clipPath></defs><g clip-path="url(#e4d6bb71de)"><path fill="#d9d9d9" d="M 34.9375 33.96875 L 12.347656 33.96875 C 9.453125 33.96875 7.097656 31.628906 7.097656 28.753906 C 7.097656 27.457031 7.585938 26.210938 8.464844 25.246094 C 9.210938 24.433594 10.179688 23.882812 11.238281 23.652344 L 5.753906 6.042969 L 1.726562 6.042969 C 0.773438 6.042969 -0.00390625 5.273438 -0.00390625 4.324219 C -0.00390625 3.375 0.773438 2.605469 1.726562 2.605469 L 6.871094 2.605469 C 7.761719 2.527344 8.570312 3.128906 8.738281 3.996094 L 14.832031 23.535156 L 30.996094 23.535156 C 31.949219 23.535156 32.726562 24.308594 32.726562 25.253906 C 32.726562 26.203125 31.949219 26.976562 30.996094 26.976562 L 12.347656 26.976562 C 11.359375 26.976562 10.558594 27.773438 10.558594 28.753906 C 10.558594 29.734375 11.359375 30.53125 12.347656 30.53125 L 34.9375 30.53125 C 35.890625 30.53125 36.667969 31.300781 36.667969 32.25 C 36.667969 33.199219 35.890625 33.96875 34.9375 33.96875 Z M 1.726562 3.566406 C 1.304688 3.566406 0.960938 3.90625 0.960938 4.324219 C 0.960938 4.742188 1.304688 5.082031 1.726562 5.082031 L 6.109375 5.082031 C 6.320312 5.082031 6.507812 5.222656 6.570312 5.421875 L 12.324219 23.898438 C 12.367188 24.035156 12.347656 24.1875 12.265625 24.304688 C 12.1875 24.425781 12.058594 24.503906 11.914062 24.519531 C 9.71875 24.738281 8.0625 26.5625 8.0625 28.753906 C 8.0625 31.101562 9.984375 33.007812 12.34375 33.007812 L 34.9375 33.007812 C 35.355469 33.007812 35.699219 32.667969 35.699219 32.25 C 35.699219 31.832031 35.355469 31.492188 34.9375 31.492188 L 12.347656 31.492188 C 10.828125 31.492188 9.589844 30.261719 9.589844 28.753906 C 9.589844 27.242188 10.828125 26.015625 12.347656 26.015625 L 30.992188 26.015625 C 31.414062 26.015625 31.757812 25.671875 31.757812 25.253906 C 31.757812 24.835938 31.414062 24.496094 30.992188 24.496094 L 14.476562 24.496094 C 14.265625 24.496094 14.078125 24.359375 14.015625 24.15625 L 7.804688 4.253906 C 7.800781 4.234375 7.796875 4.214844 7.792969 4.195312 C 7.722656 3.804688 7.34375 3.519531 6.945312 3.5625 C 6.929688 3.566406 6.914062 3.566406 6.894531 3.566406 Z M 1.726562 3.566406 " fill-opacity="1" fill-rule="nonzero"/></g><g clip-path="url(#ae48e59ce7)"><path fill="#d9d9d9" d="M 34.96875 24.484375 L 30.992188 24.484375 C 30.726562 24.484375 30.511719 24.269531 30.511719 24.003906 C 30.511719 23.738281 30.726562 23.523438 30.992188 23.523438 L 34.96875 23.523438 C 36.960938 23.523438 37.691406 22.910156 38.234375 20.792969 L 41.621094 7.535156 L 9.1875 7.535156 C 8.917969 7.535156 8.703125 7.320312 8.703125 7.054688 C 8.703125 6.789062 8.917969 6.574219 9.1875 6.574219 L 42.242188 6.574219 C 42.390625 6.574219 42.535156 6.640625 42.625 6.757812 C 42.71875 6.875 42.75 7.027344 42.710938 7.171875 L 39.171875 21.027344 C 38.625 23.160156 37.730469 24.484375 34.96875 24.484375 Z M 34.96875 24.484375 " fill-opacity="1" fill-rule="nonzero"/></g><path fill="#d9d9d9" d="M 40.808594 13.148438 L 10.9375 13.148438 C 10.671875 13.148438 10.453125 12.933594 10.453125 12.667969 C 10.453125 12.402344 10.671875 12.1875 10.9375 12.1875 L 40.808594 12.1875 C 41.074219 12.1875 41.292969 12.402344 41.292969 12.667969 C 41.292969 12.933594 41.074219 13.148438 40.808594 13.148438 Z M 40.808594 13.148438 " fill-opacity="1" fill-rule="nonzero"/><path fill="#d9d9d9" d="M 39.328125 18.933594 L 12.742188 18.933594 C 12.476562 18.933594 12.257812 18.71875 12.257812 18.453125 C 12.257812 18.191406 12.476562 17.972656 12.742188 17.972656 L 39.328125 17.972656 C 39.59375 17.972656 39.8125 18.191406 39.8125 18.453125 C 39.8125 18.71875 39.59375 18.933594 39.328125 18.933594 Z M 39.328125 18.933594 " fill-opacity="1" fill-rule="nonzero"/><path fill="#d9d9d9" d="M 17.621094 24.484375 C 17.390625 24.484375 17.1875 24.320312 17.144531 24.085938 L 14.136719 7.140625 C 14.089844 6.878906 14.265625 6.628906 14.527344 6.582031 C 14.789062 6.535156 15.039062 6.710938 15.085938 6.972656 L 18.097656 23.921875 C 18.144531 24.179688 17.96875 24.429688 17.707031 24.476562 C 17.675781 24.480469 17.648438 24.484375 17.621094 24.484375 Z M 17.621094 24.484375 " fill-opacity="1" fill-rule="nonzero"/><path fill="#d9d9d9" d="M 33.246094 24.484375 C 33.21875 24.484375 33.191406 24.480469 33.164062 24.476562 C 32.898438 24.429688 32.722656 24.179688 32.769531 23.917969 L 35.78125 6.96875 C 35.828125 6.710938 36.078125 6.535156 36.339844 6.582031 C 36.605469 6.628906 36.78125 6.875 36.734375 7.136719 L 33.722656 24.085938 C 33.683594 24.320312 33.476562 24.484375 33.246094 24.484375 Z M 33.246094 24.484375 " fill-opacity="1" fill-rule="nonzero"/><path fill="#d9d9d9" d="M 23.15625 24.484375 C 22.902344 24.484375 22.6875 24.285156 22.675781 24.027344 L 21.796875 7.078125 C 21.785156 6.8125 21.988281 6.589844 22.257812 6.574219 C 22.523438 6.558594 22.75 6.765625 22.765625 7.03125 L 23.640625 23.980469 C 23.65625 24.242188 23.449219 24.46875 23.183594 24.484375 C 23.175781 24.484375 23.167969 24.484375 23.15625 24.484375 Z M 23.15625 24.484375 " fill-opacity="1" fill-rule="nonzero"/><path fill="#d9d9d9" d="M 27.710938 24.484375 C 27.703125 24.484375 27.695312 24.484375 27.6875 24.480469 C 27.417969 24.46875 27.214844 24.242188 27.226562 23.976562 L 28.105469 7.027344 C 28.117188 6.765625 28.34375 6.558594 28.613281 6.574219 C 28.878906 6.585938 29.082031 6.8125 29.070312 7.078125 L 28.195312 24.027344 C 28.179688 24.285156 27.964844 24.484375 27.710938 24.484375 Z M 27.710938 24.484375 " fill-opacity="1" fill-rule="nonzero"/><g clip-path="url(#411959bd4a)"><path fill="#d9d9d9" d="M 14.714844 39.972656 C 12.78125 39.972656 11.210938 38.410156 11.210938 36.492188 C 11.210938 34.570312 12.78125 33.007812 14.714844 33.007812 C 16.644531 33.007812 18.21875 34.570312 18.21875 36.492188 C 18.21875 38.410156 16.644531 39.972656 14.714844 39.972656 Z M 14.714844 33.96875 C 13.316406 33.96875 12.175781 35.101562 12.175781 36.492188 C 12.175781 37.882812 13.316406 39.011719 14.714844 39.011719 C 16.113281 39.011719 17.25 37.882812 17.25 36.492188 C 17.25 35.101562 16.113281 33.96875 14.714844 33.96875 Z M 14.714844 33.96875 " fill-opacity="1" fill-rule="nonzero"/></g><path fill="#d9d9d9" d="M 14.714844 38.105469 C 13.816406 38.105469 13.089844 37.382812 13.089844 36.492188 C 13.089844 35.601562 13.816406 34.875 14.714844 34.875 C 15.609375 34.875 16.339844 35.601562 16.339844 36.492188 C 16.339844 37.382812 15.609375 38.105469 14.714844 38.105469 Z M 14.714844 35.835938 C 14.351562 35.835938 14.054688 36.128906 14.054688 36.492188 C 14.054688 36.851562 14.351562 37.144531 14.714844 37.144531 C 15.078125 37.144531 15.371094 36.851562 15.371094 36.492188 C 15.371094 36.128906 15.078125 35.835938 14.714844 35.835938 Z M 14.714844 35.835938 " fill-opacity="1" fill-rule="nonzero"/><g clip-path="url(#dfa8c3c492)"><path fill="#d9d9d9" d="M 31.339844 39.972656 C 29.410156 39.972656 27.835938 38.410156 27.835938 36.492188 C 27.835938 34.570312 29.410156 33.007812 31.339844 33.007812 C 33.273438 33.007812 34.84375 34.570312 34.84375 36.492188 C 34.84375 38.410156 33.273438 39.972656 31.339844 39.972656 Z M 31.339844 33.96875 C 29.941406 33.96875 28.804688 35.101562 28.804688 36.492188 C 28.804688 37.882812 29.941406 39.011719 31.339844 39.011719 C 32.738281 39.011719 33.878906 37.882812 33.878906 36.492188 C 33.878906 35.101562 32.738281 33.96875 31.339844 33.96875 Z M 31.339844 33.96875 " fill-opacity="1" fill-rule="nonzero"/></g><path fill="#d9d9d9" d="M 31.339844 38.105469 C 30.445312 38.105469 29.714844 37.382812 29.714844 36.492188 C 29.714844 35.601562 30.445312 34.875 31.339844 34.875 C 32.238281 34.875 32.964844 35.601562 32.964844 36.492188 C 32.964844 37.382812 32.238281 38.105469 31.339844 38.105469 Z M 31.339844 35.835938 C 30.976562 35.835938 30.683594 36.128906 30.683594 36.492188 C 30.683594 36.851562 30.976562 37.144531 31.339844 37.144531 C 31.703125 37.144531 32 36.851562 32 36.492188 C 32 36.128906 31.703125 35.835938 31.339844 35.835938 Z M 31.339844 35.835938 " fill-opacity="1" fill-rule="nonzero"/></svg>